<svg width="111" height="96" viewBox="0 0 111 96" fill="none" xmlns="http://www.w3.org/2000/svg">
<g clip-path="url(#clip0_2_11)">
<path fill-rule="evenodd" clip-rule="evenodd" d="M-0.5 -32.866C-0.190599 -33.0447 0.190599 -33.0447 0.5 -32.866L27.71 -17.1563L54.92 -32.866C55.2294 -33.0447 55.6106 -33.0447 55.92 -32.866L83.13 -17.1563L110.34 -32.866C110.649 -33.0447 111.031 -33.0447 111.34 -32.866L139.053 -16.866C139.362 -16.6874 139.553 -16.3573 139.553 -16V16C139.553 16.3573 139.362 16.6874 139.053 16.866L111.843 32.5757V63.4243L139.053 79.134C139.362 79.3126 139.553 79.6427 139.553 80V112C139.553 112.357 139.362 112.687 139.053 112.866L111.34 128.866C111.031 129.045 110.649 129.045 110.34 128.866L83.13 113.156L55.92 128.866C55.6106 129.045 55.2294 129.045 54.92 128.866L27.71 113.156L0.5 128.866C0.190599 129.045 -0.190599 129.045 -0.5 128.866L-28.2128 112.866C-28.5222 112.687 -28.7128 112.357 -28.7128 112V80C-28.7128 79.6427 -28.5222 79.3126 -28.2128 79.134L-1.00281 63.4243V32.5757L-28.2128 16.866C-28.5222 16.6874 -28.7128 16.3573 -28.7128 16V-16C-28.7128 -16.3573 -28.5222 -16.6874 -28.2128 -16.866L-0.5 -32.866ZM0.997187 32.579V63.421L27.71 78.8437L54.4172 63.4243V32.5757L27.71 17.1563L0.997187 32.579ZM-0.00140572 65.1555L-26.7128 80.5774V111.423L0 126.845L26.7072 111.426V80.5757L-0.00140572 65.1555ZM28.7128 80.5757V111.426L55.42 126.845L82.1272 111.426V80.5757L55.42 65.1563L28.7128 80.5757ZM84.1328 80.5757V111.426L110.84 126.845L137.553 111.423V80.5774L110.841 65.1555L84.1328 80.5757ZM109.843 63.421V32.579L83.13 17.1563L56.4228 32.5757V63.4243L83.13 78.8437L109.843 63.421ZM110.841 30.8445L137.553 15.4226V-15.4226L110.84 -30.8453L84.1328 -15.4259V15.4243L110.841 30.8445ZM82.1272 15.4243V-15.4259L55.42 -30.8453L28.7128 -15.4259V15.4243L55.42 30.8437L82.1272 15.4243ZM26.7072 15.4243L-0.00140572 30.8445L-26.7128 15.4226V-15.4226L0 -30.8453L26.7072 -15.4259V15.4243Z" fill="white" fill-opacity="0.2"/>
</g>
<defs>
<clipPath id="clip0_2_11">
<rect width="110.84" height="96" fill="white"/>
</clipPath>
</defs>
</svg>
